<svg width="32" height="32" viewBox="0 0 32 32" fill="none" xmlns="http://www.w3.org/2000/svg">
  <rect width="32" height="32" rx="6" fill="#9999FF"/>
  <path d="M11.5 20H9.5L14 10H16.5L21 20H18.9L18 17.8H12.4L11.5 20ZM13 16H17.4L15.2 11.5L13 16Z" fill="white"/>
  <path d="M20 15V13.5C20 12.6716 20.6716 12 21.5 12H22C22.5523 12 23 11.5523 23 11C23 10.4477 22.5523 10 22 10H20V11.5H22C22.2761 11.5 22.5 11.7239 22.5 12C22.5 12.2761 22.2761 12.5 22 12.5H21.5C20.1193 12.5 19 13.6193 19 15V16.5C19 17.3284 19.6716 18 20.5 18H21C21.5523 18 22 18.4477 22 19C22 19.5523 21.5523 20 21 20H19V18.5H21C21.2761 18.5 21.5 18.2761 21.5 18C21.5 17.7239 21.2761 17.5 21 17.5H20.5C19.6716 17.5 19 16.8284 19 16V15H20Z" fill="white"/>
</svg>
