<svg width="32" height="32" viewBox="0 0 32 32" fill="none" xmlns="http://www.w3.org/2000/svg">
  <rect width="32" height="32" rx="6" fill="#9999FF"/>
  <path d="M9 20V10H12.5C13.3284 10 14 10.6716 14 11.5V12.5C14 13.3284 13.3284 14 12.5 14H11V15.5H13V17H11V20H9Z" fill="white"/>
  <path d="M11 11.5V12.5H12.5V11.5H11Z" fill="white"/>
  <path d="M15 12V10H17V12C17 12.5523 17.4477 13 18 13H19V14.5H18C17.4477 14.5 17 14.9477 17 15.5V18C17 18.5523 17.4477 19 18 19V20.5C16.6193 20.5 15.5 19.3807 15.5 18V15.5C15.5 14.6716 16.1716 14 17 14V13C16.1716 13 15.5 12.3284 15.5 11.5V12H15Z" fill="white"/>
  <path d="M19 15.5V14.5H20.5C21.3284 14.5 22 15.1716 22 16V18C22 18.8284 21.3284 19.5 20.5 19.5V18H19V19.5H20.5C22.1569 19.5 23.5 18.1569 23.5 16.5V16C23.5 14.6193 22.3807 13.5 21 13.5H19V15.5Z" fill="white"/>
</svg>
